<svg
	xmlns="http://www.w3.org/2000/svg" viewBox="0 0 64 64">
    <g style="transform: translate(-6px, -6px);">
        <circle cx="19" cy="24" r="5" fill="#f68706" stroke="#f68706" stroke-miterlimit="10" stroke-width=".5"/>
        <path stroke="#f68706" stroke-linecap="round" stroke-miterlimit="10" stroke-width="2" d="M19 15.67V12.5m0 23v-3.17m5.89-14.22l2.24-2.24M10.87 32.13l2.24-2.24m0-11.78l-2.24-2.24m16.26 16.26l-2.24-2.24M7.5 24h3.17m19.83 0h-3.17"></path>
    </g>
	<path fill="#00546e" stroke="#00546e" stroke-miterlimit="10" stroke-width=".5" d="M46.5 31.5h-.32a10.49 10.49 0 00-19.11-8 7 7 0 00-10.57 6 7.21 7.21 0 00.1 1.14A7.5 7.5 0 0018 45.5a4.19 4.19 0 00.5 0v0h28a7 7 0 000-14z"/>
</svg>